<mxfile host="65bd71144e" modified="2021-02-04T01:32:52.709Z" agent="5.0 (Windows NT 10.0; Win64; x64) AppleWebKit/537.36 (KHTML, like Gecko) Code/1.52.1 Chrome/83.0.4103.122 Electron/9.3.5 Safari/537.36" version="13.10.0" etag="dnpeWLG5KTEOudYIe5aP" type="embed">
    <diagram id="AVLBV74B4GXsNsEGIIUm" name="Page-1">
        <mxGraphModel dx="1374" dy="790" grid="0" gridSize="10" guides="1" tooltips="1" connect="1" arrows="1" fold="1" page="1" pageScale="1" pageWidth="1169" pageHeight="827" background="#ffffff" math="0" shadow="0">
            <root>
                <mxCell id="0"/>
                <mxCell id="1" parent="0"/>
                <mxCell id="2" value="Table" style="shape=table;html=1;whiteSpace=wrap;startSize=30;container=1;collapsible=0;childLayout=tableLayout;fontStyle=1;align=center;strokeColor=#FCFCFC;strokeWidth=3;" vertex="1" parent="1">
                    <mxGeometry x="65" y="102" width="128.4" height="107" as="geometry"/>
                </mxCell>
                <mxCell id="3" value="" style="shape=partialRectangle;html=1;whiteSpace=wrap;collapsible=0;dropTarget=0;pointerEvents=0;fillColor=none;top=0;left=0;bottom=0;right=0;points=[[0,0.5],[1,0.5]];portConstraint=eastwest;strokeColor=#FCFCFC;strokeWidth=3;" vertex="1" parent="2">
                    <mxGeometry y="30" width="128.4" height="26" as="geometry"/>
                </mxCell>
                <mxCell id="4" value="" style="shape=partialRectangle;html=1;whiteSpace=wrap;connectable=0;top=0;left=0;bottom=0;right=0;overflow=hidden;fillColor=#D9D9D9;strokeColor=#FCFCFC;strokeWidth=3;" vertex="1" parent="3">
                    <mxGeometry width="43" height="26" as="geometry"/>
                </mxCell>
                <mxCell id="5" value="" style="shape=partialRectangle;html=1;whiteSpace=wrap;connectable=0;top=0;left=0;bottom=0;right=0;overflow=hidden;fillColor=#D9D9D9;strokeColor=#FCFCFC;strokeWidth=3;" vertex="1" parent="3">
                    <mxGeometry x="43" width="43" height="26" as="geometry"/>
                </mxCell>
                <mxCell id="6" value="" style="shape=partialRectangle;html=1;whiteSpace=wrap;connectable=0;top=0;left=0;bottom=0;right=0;overflow=hidden;fillColor=#D9D9D9;strokeColor=#FCFCFC;strokeWidth=3;" vertex="1" parent="3">
                    <mxGeometry x="86" width="42" height="26" as="geometry"/>
                </mxCell>
                <mxCell id="7" value="" style="shape=partialRectangle;html=1;whiteSpace=wrap;collapsible=0;dropTarget=0;pointerEvents=0;fillColor=none;top=0;left=0;bottom=0;right=0;points=[[0,0.5],[1,0.5]];portConstraint=eastwest;strokeColor=#FCFCFC;strokeWidth=3;" vertex="1" parent="2">
                    <mxGeometry y="56" width="128.4" height="25" as="geometry"/>
                </mxCell>
                <mxCell id="8" value="" style="shape=partialRectangle;html=1;whiteSpace=wrap;connectable=0;top=0;left=0;bottom=0;right=0;overflow=hidden;fillColor=#D9D9D9;strokeColor=#FCFCFC;strokeWidth=3;" vertex="1" parent="7">
                    <mxGeometry width="43" height="25" as="geometry"/>
                </mxCell>
                <mxCell id="9" value="" style="shape=partialRectangle;html=1;whiteSpace=wrap;connectable=0;top=0;left=0;bottom=0;right=0;overflow=hidden;fillColor=#D9D9D9;strokeColor=#FCFCFC;strokeWidth=3;" vertex="1" parent="7">
                    <mxGeometry x="43" width="43" height="25" as="geometry"/>
                </mxCell>
                <mxCell id="10" value="" style="shape=partialRectangle;html=1;whiteSpace=wrap;connectable=0;top=0;left=0;bottom=0;right=0;overflow=hidden;fillColor=#D9D9D9;strokeColor=#FCFCFC;strokeWidth=3;" vertex="1" parent="7">
                    <mxGeometry x="86" width="42" height="25" as="geometry"/>
                </mxCell>
                <mxCell id="11" value="" style="shape=partialRectangle;html=1;whiteSpace=wrap;collapsible=0;dropTarget=0;pointerEvents=0;fillColor=none;top=0;left=0;bottom=0;right=0;points=[[0,0.5],[1,0.5]];portConstraint=eastwest;strokeColor=#FCFCFC;strokeWidth=3;" vertex="1" parent="2">
                    <mxGeometry y="81" width="128.4" height="26" as="geometry"/>
                </mxCell>
                <mxCell id="12" value="" style="shape=partialRectangle;html=1;whiteSpace=wrap;connectable=0;top=0;left=0;bottom=0;right=0;overflow=hidden;fillColor=#D9D9D9;strokeColor=#FCFCFC;strokeWidth=3;" vertex="1" parent="11">
                    <mxGeometry width="43" height="26" as="geometry"/>
                </mxCell>
                <mxCell id="13" value="" style="shape=partialRectangle;html=1;whiteSpace=wrap;connectable=0;top=0;left=0;bottom=0;right=0;overflow=hidden;fillColor=#D9D9D9;strokeColor=#FCFCFC;strokeWidth=3;" vertex="1" parent="11">
                    <mxGeometry x="43" width="43" height="26" as="geometry"/>
                </mxCell>
                <mxCell id="14" value="" style="shape=partialRectangle;html=1;whiteSpace=wrap;connectable=0;top=0;left=0;bottom=0;right=0;overflow=hidden;fillColor=#D9D9D9;strokeColor=#FCFCFC;strokeWidth=3;" vertex="1" parent="11">
                    <mxGeometry x="86" width="42" height="26" as="geometry"/>
                </mxCell>
                <mxCell id="15" value="Text" style="text;html=1;align=center;verticalAlign=middle;resizable=0;points=[];autosize=1;strokeColor=#FCFCFC;" vertex="1" parent="1">
                    <mxGeometry x="340" y="310" width="40" height="20" as="geometry"/>
                </mxCell>
            </root>
        </mxGraphModel>
    </diagram>
</mxfile>